<svg fill="#aabd49" stroke="#eee" stroke-opacity="1" id="Capa_1" data-name="Capa 1" xmlns="http://www.w3.org/2000/svg" viewBox="0 0 984.8 279.36"><path d="M101.92,47.65H66.68a2.42,2.42,0,0,0-2.43,2.41c-.07,19.89,0,43,.31,68.75.83,65.5,2.56,82.15,14.79,96,6.29,7.11,20.21,19,50.46,21.61a2.43,2.43,0,0,0,2.63-2.43V199.5a2.43,2.43,0,0,0-2.42-2.43c-35.42,0-24-49.8-25.47-75.21a2.42,2.42,0,0,1,2.43-2.55h23a2.43,2.43,0,0,0,2.44-2.43V82.12A2.43,2.43,0,0,0,130,79.69H106.79a2.43,2.43,0,0,1-2.43-2.43V50.08A2.43,2.43,0,0,0,101.92,47.65Z"/><path d="M256.61,88C186.12,46.87,105.45,127.72,146.79,198.1c17.77,34.44,76.29,56.22,105,26.15A2.43,2.43,0,0,1,256,225.9v7.36a2.43,2.43,0,0,0,2.43,2.43H294a2.42,2.42,0,0,0,2.42-2.51C294.69,183.15,309.89,117.16,256.61,88Zm-11.67,99c-39.61,36.86-92.94-19.16-57.08-58.34l.22-.22c40.25-36.78,92,18.83,57.09,58.33A2.5,2.5,0,0,1,244.94,187Z"/><rect x="310.89" y="47.65" width="40.56" height="188.04" rx="2.43"/><path d="M679.51,113.07c-39.25-58-130.74-42.18-145.92,26.16a2.43,2.43,0,0,1-2.37,1.92h-7a2.43,2.43,0,0,1-2.43-2.43V50.08a2.43,2.43,0,0,0-2.44-2.43h-36a2.43,2.43,0,0,0-2.44,2.43V84.74a2.42,2.42,0,0,1-3.63,2.1C409.44,47.91,331.22,129.92,372,198.09c36,63.13,132.65,47.81,147.85-22.55a2.44,2.44,0,0,1,2.37-1.94H531a2.44,2.44,0,0,1,2.37,1.93c16.16,73.85,118.07,84.71,150.94,17.81a2.44,2.44,0,0,0-2.16-3.54l-43.68-.28a2.42,2.42,0,0,0-1.56.57c-18,14.93-53.15,10.27-60.89-13.36a2.43,2.43,0,0,1,2.34-3.13H688.81a2.42,2.42,0,0,0,2.41-2.06C694.17,151.64,690.76,128.69,679.51,113.07ZM469.89,187c-40.25,36.78-92-18.83-57.09-58.33l.23-.24c39.61-36.85,92.94,19.17,57.08,58.35Zm106.74-49.29c13.54-27.64,56.51-27.11,70.55,0a2.43,2.43,0,0,1-2.19,3.51H578.84A2.43,2.43,0,0,1,576.63,137.68Z"/><path d="M850.16,117.29c-40.55-70.77-150.08-40.93-149.91,40.4-.3,28.52,15.78,55.62,40.25,69.73,20.91,12.93,57.89,16.57,75.62-2.6a2.43,2.43,0,0,1,4.25,1.61v6.83a2.43,2.43,0,0,0,2.43,2.43h35.56a2.43,2.43,0,0,0,2.43-2.53C859.44,203.4,867.25,141.27,850.16,117.29ZM809.33,187c-39.62,36.86-92.94-19.16-57.08-58.34.07-.07.14-.15.22-.22,40.24-36.78,92,18.83,57.09,58.33A2.5,2.5,0,0,1,809.33,187Z"/><circle cx="889.28" cy="74.05" r="26.4"/><circle cx="921.39" cy="114.96" r="18.21"/></svg>